<?xml version="1.0"?>
<!DOCTYPE svg PUBLIC "-//W3C//DTD SVG 1.1//EN" "http://www.w3.org/Graphics/SVG/1.1/DTD/svg11.dtd">
<!--Phoronix Test Suite v4.8.3 (Sokndal) [ http://www.phoronix-test-suite.com/ ]-->
<svg xmlns="http://www.w3.org/2000/svg" xmlns:xlink="http://www.w3.org/1999/xlink" version="1.1" font-family="sans-serif" viewbox="0 0 1000 421" width="1000" height="421">
  <rect x="1" y="1" width="998" height="420" fill="#FEFEFE" stroke="#757575" stroke-width="1"/>
  <rect x="30" y="48" width="10" height="10" fill="#232C16" stroke="#757575" stroke-width="1"/>
  <text x="43" y="57" font-size="9" fill="#232C16" text-anchor="start">rpi2-cpu-test</text>
  <rect x="121" y="48" width="10" height="10" fill="#F13A13" stroke="#757575" stroke-width="1"/>
  <text x="134" y="57" font-size="9" fill="#F13A13" text-anchor="start">rpi3-cpu-test</text>
  <rect x="30" y="76" width="960" height="100" fill="#BABABA" stroke="#757575" stroke-width="1"/>
  <a xlink:href="http://www.phoronix-test-suite.com/" xlink:show="new">
    <text x="988" y="88" font-size="10" fill="#065695" text-anchor="end" xlink:show="new">PHORONIX-TEST-SUITE.COM</text>
  </a>
  <text x="21" y="164" font-size="10" fill="#065695" text-anchor="end">0.2</text>
  <line x1="41" y1="160" x2="990" y2="160" stroke="#949494" stroke-width="1" stroke-dasharray="5,5"/>
  <line x1="30" y1="160" x2="990" y2="160" stroke="#757575" stroke-width="1" stroke-dasharray="5,5"/>
  <line x1="26" y1="160" x2="34" y2="160" stroke="#757575" stroke-width="1"/>
  <text x="21" y="147" font-size="10" fill="#065695" text-anchor="end">0.4</text>
  <line x1="41" y1="143" x2="990" y2="143" stroke="#949494" stroke-width="1" stroke-dasharray="5,5"/>
  <line x1="30" y1="143" x2="990" y2="143" stroke="#757575" stroke-width="1" stroke-dasharray="5,5"/>
  <line x1="26" y1="143" x2="34" y2="143" stroke="#757575" stroke-width="1"/>
  <text x="21" y="130" font-size="10" fill="#065695" text-anchor="end">0.6</text>
  <line x1="41" y1="126" x2="990" y2="126" stroke="#949494" stroke-width="1" stroke-dasharray="5,5"/>
  <line x1="30" y1="126" x2="990" y2="126" stroke="#757575" stroke-width="1" stroke-dasharray="5,5"/>
  <line x1="26" y1="126" x2="34" y2="126" stroke="#757575" stroke-width="1"/>
  <text x="21" y="113" font-size="10" fill="#065695" text-anchor="end">0.8</text>
  <line x1="41" y1="109" x2="990" y2="109" stroke="#949494" stroke-width="1" stroke-dasharray="5,5"/>
  <line x1="30" y1="109" x2="990" y2="109" stroke="#757575" stroke-width="1" stroke-dasharray="5,5"/>
  <line x1="26" y1="109" x2="34" y2="109" stroke="#757575" stroke-width="1"/>
  <text x="21" y="96" font-size="10" fill="#065695" text-anchor="end">1</text>
  <line x1="41" y1="92" x2="990" y2="92" stroke="#949494" stroke-width="1" stroke-dasharray="5,5"/>
  <line x1="30" y1="92" x2="990" y2="92" stroke="#757575" stroke-width="1" stroke-dasharray="5,5"/>
  <line x1="26" y1="92" x2="34" y2="92" stroke="#757575" stroke-width="1"/>
  <rect x="30" y="191" width="960" height="100" fill="#BABABA" stroke="#757575" stroke-width="1"/>
  <a xlink:href="http://www.phoronix-test-suite.com/" xlink:show="new">
    <text x="988" y="203" font-size="10" fill="#065695" text-anchor="end" xlink:show="new">PHORONIX-TEST-SUITE.COM</text>
  </a>
  <text x="21" y="279" font-size="10" fill="#065695" text-anchor="end">0.2</text>
  <line x1="41" y1="275" x2="990" y2="275" stroke="#949494" stroke-width="1" stroke-dasharray="5,5"/>
  <line x1="30" y1="275" x2="990" y2="275" stroke="#757575" stroke-width="1" stroke-dasharray="5,5"/>
  <line x1="26" y1="275" x2="34" y2="275" stroke="#757575" stroke-width="1"/>
  <text x="21" y="262" font-size="10" fill="#065695" text-anchor="end">0.4</text>
  <line x1="41" y1="258" x2="990" y2="258" stroke="#949494" stroke-width="1" stroke-dasharray="5,5"/>
  <line x1="30" y1="258" x2="990" y2="258" stroke="#757575" stroke-width="1" stroke-dasharray="5,5"/>
  <line x1="26" y1="258" x2="34" y2="258" stroke="#757575" stroke-width="1"/>
  <text x="21" y="245" font-size="10" fill="#065695" text-anchor="end">0.6</text>
  <line x1="41" y1="241" x2="990" y2="241" stroke="#949494" stroke-width="1" stroke-dasharray="5,5"/>
  <line x1="30" y1="241" x2="990" y2="241" stroke="#757575" stroke-width="1" stroke-dasharray="5,5"/>
  <line x1="26" y1="241" x2="34" y2="241" stroke="#757575" stroke-width="1"/>
  <text x="21" y="228" font-size="10" fill="#065695" text-anchor="end">0.8</text>
  <line x1="41" y1="224" x2="990" y2="224" stroke="#949494" stroke-width="1" stroke-dasharray="5,5"/>
  <line x1="30" y1="224" x2="990" y2="224" stroke="#757575" stroke-width="1" stroke-dasharray="5,5"/>
  <line x1="26" y1="224" x2="34" y2="224" stroke="#757575" stroke-width="1"/>
  <text x="21" y="211" font-size="10" fill="#065695" text-anchor="end">1</text>
  <line x1="41" y1="207" x2="990" y2="207" stroke="#949494" stroke-width="1" stroke-dasharray="5,5"/>
  <line x1="30" y1="207" x2="990" y2="207" stroke="#757575" stroke-width="1" stroke-dasharray="5,5"/>
  <line x1="26" y1="207" x2="34" y2="207" stroke="#757575" stroke-width="1"/>
  <rect x="30" y="306" width="960" height="100" fill="#BABABA" stroke="#757575" stroke-width="1"/>
  <a xlink:href="http://www.phoronix-test-suite.com/" xlink:show="new">
    <text x="988" y="318" font-size="10" fill="#065695" text-anchor="end" xlink:show="new">PHORONIX-TEST-SUITE.COM</text>
  </a>
  <text x="21" y="394" font-size="10" fill="#065695" text-anchor="end">0.2</text>
  <line x1="41" y1="390" x2="990" y2="390" stroke="#949494" stroke-width="1" stroke-dasharray="5,5"/>
  <line x1="30" y1="390" x2="990" y2="390" stroke="#757575" stroke-width="1" stroke-dasharray="5,5"/>
  <line x1="26" y1="390" x2="34" y2="390" stroke="#757575" stroke-width="1"/>
  <text x="21" y="377" font-size="10" fill="#065695" text-anchor="end">0.4</text>
  <line x1="41" y1="373" x2="990" y2="373" stroke="#949494" stroke-width="1" stroke-dasharray="5,5"/>
  <line x1="30" y1="373" x2="990" y2="373" stroke="#757575" stroke-width="1" stroke-dasharray="5,5"/>
  <line x1="26" y1="373" x2="34" y2="373" stroke="#757575" stroke-width="1"/>
  <text x="21" y="360" font-size="10" fill="#065695" text-anchor="end">0.6</text>
  <line x1="41" y1="356" x2="990" y2="356" stroke="#949494" stroke-width="1" stroke-dasharray="5,5"/>
  <line x1="30" y1="356" x2="990" y2="356" stroke="#757575" stroke-width="1" stroke-dasharray="5,5"/>
  <line x1="26" y1="356" x2="34" y2="356" stroke="#757575" stroke-width="1"/>
  <text x="21" y="343" font-size="10" fill="#065695" text-anchor="end">0.8</text>
  <line x1="41" y1="339" x2="990" y2="339" stroke="#949494" stroke-width="1" stroke-dasharray="5,5"/>
  <line x1="30" y1="339" x2="990" y2="339" stroke="#757575" stroke-width="1" stroke-dasharray="5,5"/>
  <line x1="26" y1="339" x2="34" y2="339" stroke="#757575" stroke-width="1"/>
  <text x="21" y="326" font-size="10" fill="#065695" text-anchor="end">1</text>
  <line x1="41" y1="322" x2="990" y2="322" stroke="#949494" stroke-width="1" stroke-dasharray="5,5"/>
  <line x1="30" y1="322" x2="990" y2="322" stroke="#757575" stroke-width="1" stroke-dasharray="5,5"/>
  <line x1="26" y1="322" x2="34" y2="322" stroke="#757575" stroke-width="1"/>
  <text x="83" y="179" font-size="6.5" fill="#231f20" text-anchor="middle" dominant-baseline="text-before-edge">Timed MAFFT Alignment</text>
  <rect x="40.6" y="107" width="42" height="69" fill="#232C16" stroke="#949494" stroke-width="1"/>
  <rect x="82.6" y="94" width="42" height="82" fill="#F13A13" stroke="#949494" stroke-width="1"/>
  <text x="189" y="179" font-size="6.5" fill="#231f20" text-anchor="middle" dominant-baseline="text-before-edge">Gcrypt Library</text>
  <rect x="146.6" y="94" width="42" height="82" fill="#232C16" stroke="#949494" stroke-width="1"/>
  <rect x="188.6" y="98" width="42" height="78" fill="#F13A13" stroke="#949494" stroke-width="1"/>
  <text x="295" y="179" font-size="6.5" fill="#231f20" text-anchor="middle" dominant-baseline="text-before-edge">TSCP</text>
  <rect x="252.6" y="94" width="42" height="82" fill="#232C16" stroke="#949494" stroke-width="1"/>
  <text x="401" y="179" font-size="6.5" fill="#231f20" text-anchor="middle" dominant-baseline="text-before-edge">John The Ripper</text>
  <rect x="358.6" y="120" width="42" height="56" fill="#232C16" stroke="#949494" stroke-width="1"/>
  <rect x="400.6" y="94" width="42" height="82" fill="#F13A13" stroke="#949494" stroke-width="1"/>
  <text x="507" y="179" font-size="6.5" fill="#231f20" text-anchor="middle" dominant-baseline="text-before-edge">John The Ripper</text>
  <rect x="464.6" y="107" width="42" height="69" fill="#232C16" stroke="#949494" stroke-width="1"/>
  <rect x="506.6" y="94" width="42" height="82" fill="#F13A13" stroke="#949494" stroke-width="1"/>
  <text x="613" y="179" font-size="6.5" fill="#231f20" text-anchor="middle" dominant-baseline="text-before-edge">GraphicsMagick</text>
  <rect x="570.6" y="94" width="42" height="82" fill="#232C16" stroke="#949494" stroke-width="1"/>
  <rect x="612.6" y="94" width="42" height="82" fill="#F13A13" stroke="#949494" stroke-width="1"/>
  <text x="719" y="179" font-size="6.5" fill="#231f20" text-anchor="middle" dominant-baseline="text-before-edge">GraphicsMagick</text>
  <rect x="676.6" y="94" width="42" height="82" fill="#232C16" stroke="#949494" stroke-width="1"/>
  <rect x="718.6" y="103" width="42" height="73" fill="#F13A13" stroke="#949494" stroke-width="1"/>
  <text x="825" y="179" font-size="6.5" fill="#231f20" text-anchor="middle" dominant-baseline="text-before-edge">GraphicsMagick</text>
  <rect x="782.6" y="102" width="42" height="74" fill="#232C16" stroke="#949494" stroke-width="1"/>
  <rect x="824.6" y="94" width="42" height="82" fill="#F13A13" stroke="#949494" stroke-width="1"/>
  <text x="931" y="179" font-size="6.5" fill="#231f20" text-anchor="middle" dominant-baseline="text-before-edge">GraphicsMagick</text>
  <rect x="888.6" y="99" width="42" height="77" fill="#232C16" stroke="#949494" stroke-width="1"/>
  <rect x="930.6" y="94" width="42" height="82" fill="#F13A13" stroke="#949494" stroke-width="1"/>
  <line x1="136" y1="176" x2="944" y2="176" stroke="#757575" stroke-width="10" stroke-dasharray="1,105"/>
  <line x1="30" y1="176" x2="990" y2="176" stroke="#757575" stroke-width="1"/>
  <text x="83" y="294" font-size="6.5" fill="#231f20" text-anchor="middle" dominant-baseline="text-before-edge">Himeno Benchmark</text>
  <rect x="40.6" y="209" width="42" height="82" fill="#232C16" stroke="#949494" stroke-width="1"/>
  <rect x="82.6" y="238" width="42" height="53" fill="#F13A13" stroke="#949494" stroke-width="1"/>
  <text x="189" y="294" font-size="6.5" fill="#231f20" text-anchor="middle" dominant-baseline="text-before-edge">7-Zip Compression</text>
  <rect x="146.6" y="209" width="42" height="82" fill="#232C16" stroke="#949494" stroke-width="1"/>
  <text x="295" y="294" font-size="6.5" fill="#231f20" text-anchor="middle" dominant-baseline="text-before-edge">C-Ray</text>
  <rect x="252.6" y="213" width="42" height="78" fill="#232C16" stroke="#949494" stroke-width="1"/>
  <rect x="294.6" y="209" width="42" height="82" fill="#F13A13" stroke="#949494" stroke-width="1"/>
  <text x="401" y="294" font-size="6.5" fill="#231f20" text-anchor="middle" dominant-baseline="text-before-edge">Parallel BZIP2 Compression</text>
  <rect x="358.6" y="275" width="42" height="16" fill="#232C16" stroke="#949494" stroke-width="1"/>
  <rect x="400.6" y="209" width="42" height="82" fill="#F13A13" stroke="#949494" stroke-width="1"/>
  <text x="507" y="294" font-size="6.5" fill="#231f20" text-anchor="middle" dominant-baseline="text-before-edge">Smallpt</text>
  <rect x="464.6" y="209" width="42" height="82" fill="#232C16" stroke="#949494" stroke-width="1"/>
  <rect x="506.6" y="210" width="42" height="81" fill="#F13A13" stroke="#949494" stroke-width="1"/>
  <text x="613" y="294" font-size="6.5" fill="#231f20" text-anchor="middle" dominant-baseline="text-before-edge">Crafty</text>
  <rect x="570.6" y="209" width="42" height="82" fill="#232C16" stroke="#949494" stroke-width="1"/>
  <rect x="612.6" y="218" width="42" height="73" fill="#F13A13" stroke="#949494" stroke-width="1"/>
  <text x="719" y="294" font-size="6.5" fill="#231f20" text-anchor="middle" dominant-baseline="text-before-edge">FLAC Audio Encoding</text>
  <rect x="676.6" y="209" width="42" height="82" fill="#232C16" stroke="#949494" stroke-width="1"/>
  <rect x="718.6" y="235" width="42" height="56" fill="#F13A13" stroke="#949494" stroke-width="1"/>
  <text x="825" y="294" font-size="6.5" fill="#231f20" text-anchor="middle" dominant-baseline="text-before-edge">LAME MP3 Encoding</text>
  <rect x="782.6" y="212" width="42" height="79" fill="#232C16" stroke="#949494" stroke-width="1"/>
  <rect x="824.6" y="209" width="42" height="82" fill="#F13A13" stroke="#949494" stroke-width="1"/>
  <text x="931" y="294" font-size="6.5" fill="#231f20" text-anchor="middle" dominant-baseline="text-before-edge">FFmpeg</text>
  <rect x="888.6" y="222" width="42" height="69" fill="#232C16" stroke="#949494" stroke-width="1"/>
  <rect x="930.6" y="209" width="42" height="82" fill="#F13A13" stroke="#949494" stroke-width="1"/>
  <line x1="136" y1="291" x2="944" y2="291" stroke="#757575" stroke-width="10" stroke-dasharray="1,105"/>
  <line x1="30" y1="291" x2="990" y2="291" stroke="#757575" stroke-width="1"/>
  <text x="83" y="409" font-size="6.5" fill="#231f20" text-anchor="middle" dominant-baseline="text-before-edge">OpenSSL</text>
  <rect x="40.6" y="347" width="42" height="59" fill="#232C16" stroke="#949494" stroke-width="1"/>
  <rect x="82.6" y="324" width="42" height="82" fill="#F13A13" stroke="#949494" stroke-width="1"/>
  <text x="495" y="19" font-size="17" fill="#231f20" text-anchor="middle" xlink:show="new">RPi2 CPU Test</text>
  <a xlink:href="http://www.phoronix-test-suite.com/" xlink:show="new">
    <text x="990" y="73" font-size="7" fill="#949494" text-anchor="end" xlink:show="new">Phoronix Test Suite 4.8.3</text>
  </a>
</svg>
